/* XPM */
static char * thumbs_up_256x256_xpm[] = {
"50 50 506 2",
"  	c None",
". 	c #E5CFC3",
"+ 	c #BF8F71",
"@ 	c #C28357",
"# 	c #E5D2C7",
"$ 	c #FEFAF8",
"% 	c #F1E4DC",
"& 	c #CD9268",
"* 	c #CE9266",
"= 	c #EBCCBF",
"- 	c #F9E3DC",
"; 	c #F8E8E3",
"> 	c #D9A988",
", 	c #E3A576",
"' 	c #C98D63",
") 	c #E9BBAA",
"! 	c #F2C7BA",
"~ 	c #F3CFC4",
"{ 	c #DAA888",
"] 	c #E9AB7C",
"^ 	c #DB9F71",
"/ 	c #EEB4A3",
"( 	c #EEAF9D",
"_ 	c #EFBEAE",
": 	c #D49D78",
"< 	c #ECAE7F",
"[ 	c #E2A578",
"} 	c #C3895F",
"| 	c #E1B9A7",
"1 	c #F4C8BC",
"2 	c #F0B8A8",
"3 	c #E7B7A6",
"4 	c #D4986C",
"5 	c #EEB081",
"6 	c #E5A87B",
"7 	c #C88C62",
"8 	c #C08F71",
"9 	c #F0CFC3",
"0 	c #F4D6CC",
"a 	c #C79371",
"b 	c #E6A97A",
"c 	c #C9885B",
"d 	c #CB8D62",
"e 	c #CA8D62",
"f 	c #E0A274",
"g 	c #ECAD7D",
"h 	c #EDAF80",
"i 	c #E3A779",
"j 	c #C4885F",
"k 	c #C18156",
"l 	c #DA9869",
"m 	c #E4A273",
"n 	c #E6A576",
"o 	c #E9A87A",
"p 	c #EBAC7D",
"q 	c #EBAD7F",
"r 	c #DDA174",
"s 	c #BE815A",
"t 	c #BB7B50",
"u 	c #D08E60",
"v 	c #DE9C6D",
"w 	c #EBAB7D",
"x 	c #E7AA7C",
"y 	c #CF9368",
"z 	c #CC8F65",
"A 	c #DA9768",
"B 	c #E19F6F",
"C 	c #E8A97A",
"D 	c #DB9E71",
"E 	c #C1845B",
"F 	c #B97950",
"G 	c #CF9872",
"H 	c #D8986B",
"I 	c #DE9A6B",
"J 	c #E19E6F",
"K 	c #E8A778",
"L 	c #E1A374",
"M 	c #CA8D63",
"N 	c #B6744B",
"O 	c #CE966F",
"P 	c #DFA781",
"Q 	c #DB9768",
"R 	c #E5A577",
"S 	c #D4966A",
"T 	c #B5754B",
"U 	c #C98C63",
"V 	c #E5BA9A",
"W 	c #DA9667",
"X 	c #DC9869",
"Y 	c #DF9F71",
"Z 	c #CA8C61",
"` 	c #C18359",
" .	c #E1B595",
"..	c #DDA278",
"+.	c #D99465",
"@.	c #E4A375",
"#.	c #D7986A",
"$.	c #BA7A50",
"%.	c #D6A27C",
"&.	c #E1AF8B",
"*.	c #D89364",
"=.	c #E4A274",
"-.	c #E2A072",
";.	c #CD8F63",
">.	c #B6764E",
",.	c #C78A61",
"'.	c #E1B18F",
").	c #DA9A6F",
"!.	c #D89365",
"~.	c #E0A071",
"{.	c #C7885E",
"].	c #B8764B",
"^.	c #D9A47E",
"/.	c #DEA781",
"(.	c #D79365",
"_.	c #D89466",
":.	c #E3A172",
"<.	c #E8AF85",
"[.	c #CC8D62",
"}.	c #B27248",
"|.	c #C88B60",
"1.	c #DCA782",
"2.	c #D99B71",
"3.	c #D69263",
"4.	c #ECB58C",
"5.	c #E7B58E",
"6.	c #D0966D",
"7.	c #C7895E",
"8.	c #C7865B",
"9.	c #B9764A",
"0.	c #D49A72",
"a.	c #DAA078",
"b.	c #D69568",
"c.	c #E7A678",
"d.	c #EEB88E",
"e.	c #EEBE98",
"f.	c #E8BA95",
"g.	c #E6B590",
"h.	c #E2B18B",
"i.	c #E4B28C",
"j.	c #E4B28B",
"k.	c #E1AD84",
"l.	c #E2AD84",
"m.	c #E4AD82",
"n.	c #E4AB7E",
"o.	c #E4A97C",
"p.	c #E4A879",
"q.	c #E3A474",
"r.	c #E19E6E",
"s.	c #D89362",
"t.	c #C58052",
"u.	c #B57449",
"v.	c #CA8C62",
"w.	c #D69B71",
"x.	c #D89B70",
"y.	c #D59263",
"z.	c #EBAB7C",
"A.	c #EDAE80",
"B.	c #EDB183",
"C.	c #EFB485",
"D.	c #F0B486",
"E.	c #F1B688",
"F.	c #F2B88A",
"G.	c #F4BA8C",
"H.	c #F5BB8D",
"I.	c #F6BC8E",
"J.	c #F7BB8C",
"K.	c #F5B787",
"L.	c #F2B280",
"M.	c #EFAA79",
"N.	c #E9A26F",
"O.	c #D28A59",
"P.	c #B17249",
"Q.	c #C8895E",
"R.	c #D2956A",
"S.	c #D5986D",
"T.	c #D59568",
"U.	c #D49061",
"V.	c #EDB081",
"W.	c #EFB183",
"X.	c #F0B586",
"Y.	c #F2B789",
"Z.	c #F3B98A",
"`.	c #F5BB8C",
" +	c #F7BD8F",
".+	c #F7BC8D",
"++	c #F5B888",
"@+	c #F2B281",
"#+	c #F0AB79",
"$+	c #EBA371",
"%+	c #D48C5A",
"&+	c #AE6E44",
"*+	c #B8774B",
"=+	c #C8885B",
"-+	c #CF9064",
";+	c #D29267",
">+	c #D29164",
",+	c #D28E5F",
"'+	c #EEB183",
")+	c #D18958",
"!+	c #5A5A5A",
"~+	c #AD6B42",
"{+	c #BA784C",
"]+	c #C68558",
"^+	c #CB8A5D",
"/+	c #CD8B5E",
"(+	c #CE8B5C",
"_+	c #CF8B5C",
":+	c #D18D5E",
"<+	c #D38F60",
"[+	c #D59163",
"}+	c #D89465",
"|+	c #EFAB7A",
"1+	c #E69F6C",
"2+	c #CA8557",
"3+	c #565656",
"4+	c #AB6B45",
"5+	c #A8663D",
"6+	c #B57246",
"7+	c #BD794E",
"8+	c #C07B50",
"9+	c #C17C50",
"0+	c #C37E52",
"a+	c #C68154",
"b+	c #C98457",
"c+	c #CD885B",
"d+	c #CF8B5D",
"e+	c #D38F61",
"f+	c #D79264",
"g+	c #D99566",
"h+	c #F6BB8C",
"i+	c #F2B585",
"j+	c #EEAE7E",
"k+	c #C58257",
"l+	c #4F4F4F",
"m+	c #4D4D4D",
"n+	c #AB9890",
"o+	c #95502E",
"p+	c #9C5633",
"q+	c #A25A37",
"r+	c #A45D39",
"s+	c #A65F3B",
"t+	c #AA623E",
"u+	c #AE6742",
"v+	c #B46D46",
"w+	c #BB744B",
"x+	c #C17A50",
"y+	c #C88256",
"z+	c #CC875B",
"A+	c #D28D5F",
"B+	c #D59164",
"C+	c #F4BA8B",
"D+	c #F0B689",
"E+	c #ECB285",
"F+	c #E9AF82",
"G+	c #E3A77B",
"H+	c #DA9C71",
"I+	c #D39368",
"J+	c #DA9769",
"K+	c #E39D6B",
"L+	c #CF8959",
"M+	c #464646",
"N+	c #424242",
"O+	c #B2A5A0",
"P+	c #80381D",
"Q+	c #8E4428",
"R+	c #90462A",
"S+	c #92482C",
"T+	c #974E30",
"U+	c #9E5535",
"V+	c #A75E3C",
"W+	c #AF6842",
"X+	c #B77149",
"Y+	c #C07950",
"Z+	c #C78156",
"`+	c #CC875A",
" @	c #D18D5F",
".@	c #F2B98B",
"+@	c #F1B68A",
"@@	c #EDB386",
"#@	c #EFB486",
"$@	c #F3B586",
"%@	c #F3B382",
"&@	c #F0AC7A",
"*@	c #EBA470",
"=@	c #DD9460",
"-@	c #C27C50",
";@	c #3C3C3C",
">@	c #383838",
",@	c #B3AAA7",
"'@	c #7C361E",
")@	c #894026",
"!@	c #8C4228",
"~@	c #8F462A",
"{@	c #954D2E",
"]@	c #A75E3B",
"^@	c #EFAB79",
"/@	c #ECA572",
"(@	c #E29865",
"_@	c #C57E51",
":@	c #323232",
"<@	c #333333",
"[@	c #2E2E2E",
"}@	c #B2AAA7",
"|@	c #824029",
"1@	c #E39965",
"2@	c #C67F52",
"3@	c #282828",
"4@	c #242424",
"5@	c #AFA9A6",
"6@	c #884B35",
"7@	c #893F25",
"8@	c #EBA471",
"9@	c #DF9662",
"0@	c #C27D50",
"a@	c #1F1F1F",
"b@	c #1A1A1A",
"c@	c #ADA8A6",
"d@	c #8E5542",
"e@	c #E7A06E",
"f@	c #161616",
"g@	c #111111",
"h@	c #ABA7A6",
"i@	c #945F4D",
"j@	c #883F24",
"k@	c #F0B080",
"l@	c #ECA878",
"m@	c #DE9969",
"n@	c #C48258",
"o@	c #0E0E0E",
"p@	c #0F0F0F",
"q@	c #0A0A0A",
"r@	c #AAA7A6",
"s@	c #996959",
"t@	c #883E24",
"u@	c #F6BC8D",
"v@	c #F2B78A",
"w@	c #E9AF83",
"x@	c #DDA074",
"y@	c #D8986D",
"z@	c #D59468",
"A@	c #DB9666",
"B@	c #CB8657",
"C@	c #090909",
"D@	c #050505",
"E@	c #A7A5A4",
"F@	c #9F7465",
"G@	c #873D23",
"H@	c #EFB385",
"I@	c #E7AB7F",
"J@	c #DFA479",
"K@	c #DB9F75",
"L@	c #DCA076",
"M@	c #E0A479",
"N@	c #E4A87C",
"O@	c #E6A97C",
"P@	c #ECAC7C",
"Q@	c #F1AC7A",
"R@	c #EAA370",
"S@	c #D78E5C",
"T@	c #BE7B51",
"U@	c #000000",
"V@	c #A7A6A5",
"W@	c #A57D70",
"X@	c #853C22",
"Y@	c #F2B688",
"Z@	c #F4B98B",
"`@	c #F5BA8D",
" #	c #F6BB8E",
".#	c #DB925F",
"+#	c #C07C51",
"@#	c #020202",
"##	c #A4A5A5",
"$#	c #AA887C",
"%#	c #843C22",
"&#	c #F5BA8C",
"*#	c #D98F5C",
"=#	c #BF7D53",
"-#	c #A2A3A3",
";#	c #B09187",
">#	c #843C23",
",#	c #F0AC79",
"'#	c #EAA26F",
")#	c #D38B5A",
"!#	c #9FA1A1",
"~#	c #B49A91",
"{#	c #863F25",
"]#	c #EEAA79",
"^#	c #E59E6B",
"/#	c #CA8455",
"(#	c #9D9D9E",
"_#	c #B9A39C",
":#	c #87422A",
"<#	c #F4B787",
"[#	c #F1B180",
"}#	c #E3A071",
"|#	c #CA875D",
"1#	c #010101",
"2#	c #9A9B9B",
"3#	c #BCABA5",
"4#	c #8A462E",
"5#	c #F3B98B",
"6#	c #EFB487",
"7#	c #EBB084",
"8#	c #E4A77C",
"9#	c #D6986E",
"0#	c #CA8B62",
"a#	c #C98960",
"b#	c #C9875C",
"c#	c #989999",
"d#	c #C0B3AE",
"e#	c #8B4931",
"f#	c #F2B88B",
"g#	c #EEB386",
"h#	c #E8AE81",
"i#	c #E9AD80",
"j#	c #EDAF81",
"k#	c #EEAB79",
"l#	c #D69161",
"m#	c #060606",
"n#	c #C4BBB7",
"o#	c #8B4B35",
"p#	c #EDA978",
"q#	c #D69261",
"r#	c #0B0B0B",
"s#	c #979797",
"t#	c #C8C3C0",
"u#	c #8B4E38",
"v#	c #954D2F",
"w#	c #F6BC8F",
"x#	c #E9A675",
"y#	c #151515",
"z#	c #121212",
"A#	c #979898",
"B#	c #CFCCCB",
"C#	c #935C45",
"D#	c #934B2D",
"E#	c #975030",
"F#	c #9B5332",
"G#	c #AA633F",
"H#	c #B26B44",
"I#	c #BA744B",
"J#	c #C88257",
"K#	c #CC885B",
"L#	c #F3B686",
"M#	c #ECAC7B",
"N#	c #C38255",
"O#	c #1C1B1B",
"P#	c #1B1B1B",
"Q#	c #A86640",
"R#	c #AD6A43",
"S#	c #B26F44",
"T#	c #BC784C",
"U#	c #C48054",
"V#	c #CB8659",
"W#	c #D48F61",
"X#	c #D69265",
"Y#	c #F6BD8E",
"Z#	c #F2B788",
"`#	c #E3A778",
" $	c #D09265",
".$	c #C2835A",
"+$	c #1D1F1F",
"@$	c #B4754E",
"#$	c #B37249",
"$$	c #B8764A",
"%$	c #C38053",
"&$	c #CB885A",
"*$	c #D28E60",
"=$	c #D79265",
"-$	c #F3BA8B",
";$	c #F4BA8D",
">$	c #ECB386",
",$	c #DCA276",
"'$	c #C3855D",
")$	c #B4754C",
"!$	c #B9784D",
"~$	c #C17F52",
"{$	c #C68458",
"]$	c #CB885B",
"^$	c #CF8C5E",
"/$	c #D39062",
"($	c #D69466",
"_$	c #DA996A",
":$	c #DD9D6E",
"<$	c #E0A172",
"[$	c #E2A476",
"}$	c #E5A779",
"|$	c #E6A97B",
"1$	c #E7AB7D",
"2$	c #E6AC7E",
"3$	c #E5AC7E",
"4$	c #E3A97D",
"5$	c #DFA67A",
"6$	c #DCA377",
"7$	c #D0976C",
"8$	c #BD7C53",
"9$	c #C08056",
"0$	c #C38259",
"a$	c #C4855A",
"b$	c #C6875D",
"c$	c #C88A5F",
"d$	c #C98C61",
"e$	c #CB8E64",
"f$	c #CD9167",
"g$	c #C98F65",
"                                                                                                    ",
"                                                              . + @                                 ",
"                                                            # $ % & *                               ",
"                                                            = - ; > , '                             ",
"                                                            ) ! ~ { ] ^                             ",
"                                                            / ( _ : < [ }                           ",
"                                                          | 1 2 3 4 5 6 7                           ",
"                                                          8 9 0 a b 5 6 7                           ",
"                                                          c d e f g h i j                           ",
"                                                        k l m n o p q r s                           ",
"                                                      t u v m n o w x y                             ",
"                                                      z A B m n o C D E                             ",
"                                                  F G H I J m n K L M                               ",
"                                                N O P Q I J m n R S                                 ",
"                                              T U V W X I J m n Y Z                                 ",
"                                              `  ...+.X I J m @.#.                                  ",
"                                            $.%.&.*.W X I J =.-.;.                                  ",
"                                          >.,.'.).!.W X I J m ~.{.                                  ",
"                                          ].^./.(._.W X I J :.<.[.                                  ",
"                                        }.|.1.2.3._.W X I J :.4.5.6.7.                      8.      ",
"                                        9.0.a.b.3._.W X I J m c.d.e.f.g.h.i.j.k.l.m.n.o.p.q.r.s.t.  ",
"                                      u.v.w.x.y.3._.W X I J m n o z.A.B.C.D.E.F.G.H.I.J.K.L.M.N.O.  ",
"                                  P.u.Q.R.S.T.U.3._.W X I J m n o p V.W.X.Y.Z.`.I. + +.+++@+#+$+%+  ",
"                                &+*+=+-+;+>+,+U.3._.W X I J m n o p V.'+X.Y.Z.`.I. + +.+++@+#+N.)+  ",
"!+!+!+!+!+!+!+!+!+!+!+        ~+{+]+^+/+(+_+:+<+[+}+W X I J m n o p V.'+X.Y.Z.`.I. + +.+++@+|+1+2+  ",
"3+3+3+3+3+3+3+3+3+3+3+    4+5+6+7+8+9+0+a+b+c+d+e+f+g+X I J m n o p V.'+X.Y.Z.`.I. + +h+i+j+J k+    ",
"l+l+l+l+l+l+l+l+l+l+m+n+o+p+q+r+s+t+u+v+w+x+y+z+A+B+g+X I J m n o p V.'+X.Y.Z.C+D+E+F+G+H+I+J+K+L+  ",
"M+M+M+M+M+M+M+M+M+M+N+O+P+Q+R+S+T+U+V+W+X+Y+Z+`+ @B+g+X I J m n o p V.'+X.Y.Z.C+.@+@@@#@$@%@&@*@=@-@",
";@;@;@;@;@;@;@;@;@;@>@,@'@)@!@~@{@U+]@W+X+Y+Z+`+ @B+g+X I J m n o p V.'+X.Y.Z.`.I. + +.+++@+^@/@(@_@",
":@:@:@:@:@:@:@:@:@<@[@}@|@)@!@~@{@U+]@W+X+Y+Z+`+ @B+g+X I J m n o p V.'+X.Y.Z.`.I. + +.+++@+^@/@1@2@",
"3@3@3@3@3@3@3@3@3@3@4@5@6@7@!@~@{@U+]@W+X+Y+Z+`+ @B+g+X I J m n o p V.'+X.Y.Z.`.I. + +.+++@+^@8@9@0@",
"a@a@a@a@a@a@a@a@a@a@b@c@d@7@!@~@{@U+]@W+X+Y+Z+`+ @B+g+X I J m n o p V.'+X.Y.Z.`.I. + +.+++@+^@e@O.  ",
"f@f@f@f@f@f@f@f@f@f@g@h@i@j@!@~@{@U+]@W+X+Y+Z+`+ @B+g+X I J m n o p V.'+X.Y.Z.`.I. + +.+K.k@l@m@n@  ",
"o@o@o@o@o@o@o@o@o@p@q@r@s@t@!@~@{@U+]@W+X+Y+Z+`+ @B+g+X I J m n o p V.'+X.Y.C+u@ +v@w@G+x@y@z@A@B@  ",
"C@C@C@C@C@C@C@C@C@C@D@E@F@G@!@~@{@U+]@W+X+Y+Z+`+ @B+g+X I J m n o p V.'+X.H@I@J@K@L@M@N@O@P@Q@R@S@T@",
"D@D@D@D@D@D@D@D@D@D@U@V@W@X@!@~@{@U+]@W+X+Y+Z+`+ @B+g+X I J m n o p V.'+X.Y@Z@G.`@ #I..+++@+^@8@.#+#",
"@#@#@#@#@#@#@#@#@#@#U@##$#%#!@~@{@U+]@W+X+Y+Z+`+ @B+g+X I J m n o p V.'+X.Y.Z.&#I. + +.+++@+^@8@*#=#",
"U@U@U@U@U@U@U@U@U@U@U@-#;#>#!@~@{@U+]@W+X+Y+Z+`+ @B+g+X I J m n o p V.'+X.Y.Z.`.I. + +.+++@+,#'#)#  ",
"U@U@U@U@U@U@U@U@U@U@U@!#~#{#!@~@{@U+]@W+X+Y+Z+`+ @B+g+X I J m n o p V.'+X.Y.Z.`.I. + +.+++@+]#^#/#  ",
"U@U@U@U@U@U@U@U@U@U@U@(#_#:#!@~@{@U+]@W+X+Y+Z+`+ @B+g+X I J m n o p V.'+X.Y.Z.`.I. + +u@<#[#}#|#    ",
"1#1#1#1#1#1#1#1#1#1#U@2#3#4#!@~@{@U+]@W+X+Y+Z+`+ @B+g+X I J m n o p V.'+X.Y.Z.`.5#6#7#8#9#0#a#b#    ",
"D@D@D@D@D@D@D@D@D@D@1#c#d#e#!@~@{@U+]@W+X+Y+Z+`+ @B+g+X I J m n o p V.'+X.Y.Z.G.f#g#h#i#j#[#k#l#    ",
"C@C@C@C@C@C@C@C@C@C@m#c#n#o#!@~@{@U+]@W+X+Y+Z+`+ @B+g+X I J m n o p V.'+X.Y.Z.`.I. + +.+++@+p#q#    ",
"p@p@p@p@p@p@p@p@p@p@r#s#t#u#!@R+v#U+V+W+X+Y+Z+`+ @B+g+X I J m n o p V.'+X.Y.Z.`.I. +w#.+++@+x#:+    ",
"y#y#y#y#y#y#y#y#y#y#z#A#B#C#D#E#F#q+G#H#I#x+J#K# @B+g+X I J m n o p V.'+X.Y.Z.`.I. + +u@L#M#l N#    ",
"O#O#O#O#O#O#O#O#O#O#P#            Q#R#S#T#U#V#d+W#X#g+X I J m n o p V.'+X.Y.Z.`.I. +Y#Z#`# $.$      ",
"+$+$+$+$+$+$+$+$+$+$+$                @$#$$$%$&$*$=$g+X I J m n o p V.'+X.Y.Z.-$;$.@>$,$'$          ",
"                                            )$!$~${$]$^$/$($_$:$<$[$}$|$1$2$3$4$5$6$7$              ",
"                                                      8$9$0$a$b$c$d$M e$f$& g$                      ",
"                                                                                                    "};
