/* XPM */
static char * test_label_xpm[] = {
"42 72 7 1",
" 	c #ADAD85855C5C",
".	c #000000000000",
"X	c #FFFF0000FFFF",
"o	c #0000FFFF0000",
"O	c #808080808080",
"+	c #494949494949",
"@	c #B5B5B5B5B5B5",
"                                          ",
"                                          ",
"                                          ",
"                                          ",
"                                          ",
"                                          ",
"                                          ",
"                                          ",
"                                          ",
"                                          ",
"                                          ",
"                                          ",
"                                          ",
"                                          ",
"                                          ",
"                                          ",
"                                          ",
"                                          ",
"                                          ",
"                                          ",
"                                          ",
"                                          ",
"                                          ",
"                                          ",
"..........................................",
".XXXXXXXXXXXXXXXXXXXXXXXXXXXXXXXXXXXXXXXX.",
".XXXXXXXXXXXXXXXXXXXXXXXXXXXXXXXXXXXXXXXX.",
".XXXXXXXXXXXXXXXXXXXXXXXXXXXXXXXXXXXXXXXX.",
".XXXXXXXXXXXXXXXXXXXXXXXXXXXXXXXXXXXXXXXX.",
".XXXXXXXXXXXXXXXXXXXXXXXXXXXXXXXXXXXXXXXX.",
".XXXXXXXXXXXXXXXXXXXXXXXXXXXXXXXXXXXXXXXX.",
".XXXXXXXXXXXXXXXXXXXXXXXXXXXXXXXXXXXXXXXX.",
".XXXoXXXXXoXXXXXXXXXXXXoooXXXXXXXXXXXXXXX.",
".XXXoXXXXXoXXXXXXXXXXXXXXoXXXXXXXXXXXXXXX.",
".XXXoXXXXXoXXXXXXXXXXXXXXoXXXXXXXXXXXXXXX.",
".XXXoXXXXXoXXXoooooXXXXXXoXXXXXoXooooXXXX.",
".XXXoooooooXXoXXXXXoXXXXXoXXXXXooXXXXoXXX.",
".XXXoXXXXXoXXoXXXXXoXXXXXoXXXXXoXXXXXoXXX.",
".XXXoXXXXXoXXoooooooXXXXXoXXXXXoXXXXXoXXX.",
".XXXoXXXXXoXXoXXXXXXXXXXXoXXXXXoXXXXXoXXX.",
".XXXoXXXXXoXXoXXXXXXXXXXXoXXXXXooXXXXoXXX.",
".XXXoXXXXXoXXXoooooXXXXoooooXXXoXooooXXXX.",
".XXXXXXXXXXXXXXXXXXXXXXXXXXXXXXoXXXXXXXXX.",
".XXXXXXXXXXXXXXXXXXXXXXXXXXXXXXoXXXXXXXXX.",
".XXXXXXXXXXXXXXXXXXXXXXXXXXXXXXoXXXXXXXXX.",
".XXXXXXXXXXXXXXXXXXXXXXXXXXXXXXXXXXXXXXXX.",
".XXXXXXXXXXXXXXXXXXXXXXXXXXXXXXXXXXXXXXXX.",
"..........................................",
"OOOOOOOOOOOOOOOOOOOOOOOOOOOOOOOOOOOOOOOOOO",
"O++++++++++++++++++++++++++++++++++++++++O",
"O++++++++++++++++++++++++++++++++++++++++O",
"O++++++++++++++++++++++++++++++++++++++++O",
"O++++++++++++++++++++++++++++++++++++++++O",
"O++++++++++++++++++++++++++++++++++++++++O",
"O++++++++++++++++++++++++++++++++++++++++O",
"O++++++++++++++++++++++++++++++++++++++++O",
"O+++@+++++@++++++++++++@@@+++++++++++++++O",
"O+++@+++++@++++++++++++++@+++++++++++++++O",
"O+++@+++++@++++++++++++++@+++++++++++++++O",
"O+++@+++++@+++@@@@@++++++@+++++@+@@@@++++O",
"O+++@@@@@@@++@+++++@+++++@+++++@@++++@+++O",
"O+++@+++++@++@+++++@+++++@+++++@+++++@+++O",
"O+++@+++++@++@@@@@@@+++++@+++++@+++++@+++O",
"O+++@+++++@++@+++++++++++@+++++@+++++@+++O",
"O+++@+++++@++@+++++++++++@+++++@@++++@+++O",
"O+++@+++++@+++@@@@@++++@@@@@+++@+@@@@++++O",
"O++++++++++++++++++++++++++++++@+++++++++O",
"O++++++++++++++++++++++++++++++@+++++++++O",
"O++++++++++++++++++++++++++++++@+++++++++O",
"O++++++++++++++++++++++++++++++++++++++++O",
"O++++++++++++++++++++++++++++++++++++++++O",
"OOOOOOOOOOOOOOOOOOOOOOOOOOOOOOOOOOOOOOOOOO"};
